<svg xmlns="http://www.w3.org/2000/svg" version="1.1" xmlns:xlink="http://www.w3.org/1999/xlink" xmlns:svgjs="http://svgjs.com/svgjs" width="1440" height="560" preserveAspectRatio="none" viewBox="0 0 1440 560"><g mask="url(&quot;#SvgjsMask1268&quot;)" fill="none"><rect width="1440" height="560" x="0" y="0" fill="url(#SvgjsLinearGradient1269)"></rect><path d="M -26.357678570256496,273 C 21.64,297 117.64,393.4 213.6423214297435,393 C 309.64,392.6 357.64,279.2 453.6423214297435,271 C 549.64,262.8 597.64,360.6 693.6423214297436,352 C 789.64,343.4 837.64,207.8 933.6423214297436,228 C 1029.64,248.2 1077.64,482.6 1173.6423214297436,453 C 1269.64,423.4 1317.64,106.2 1413.6423214297436,80 C 1509.64,53.8 1648.37,305.4 1653.6423214297436,322 C 1658.91,338.6 1482.73,194.8 1440,163" stroke="rgba(173, 176, 204, 1)" stroke-width="2"></path><path d="M -158.99447967496292,348 C -110.99,316.8 -14.99,191.6 81.00552032503707,192 C 177.01,192.4 225.01,352 321.0055203250371,350 C 417.01,348 465.01,161.4 561.0055203250371,182 C 657.01,202.6 705.01,467 801.0055203250371,453 C 897.01,439 945.01,118.8 1041.005520325037,112 C 1137.01,105.2 1185.01,427.2 1281.005520325037,419 C 1377.01,410.8 1489.21,86.4 1521.005520325037,71 C 1552.8,55.6 1456.2,287.8 1440,342" stroke="rgba(51, 121, 194, 0.58)" stroke-width="2"></path><path d="M -79.17046154678093,228 C -31.17,280.2 64.83,502.8 160.82953845321907,489 C 256.83,475.2 304.83,186.2 400.8295384532191,159 C 496.83,131.8 544.83,353.6 640.8295384532191,353 C 736.83,352.4 784.83,161.4 880.8295384532191,156 C 976.83,150.6 1024.83,310.4 1120.8295384532191,326 C 1216.83,341.6 1264.83,223 1360.8295384532191,234 C 1456.83,245 1585,381.8 1600.8295384532191,381 C 1616.66,380.2 1472.17,260.2 1440,230" stroke="rgba(51, 121, 194, 0.58)" stroke-width="2"></path></g><defs><mask id="SvgjsMask1268"><rect width="1440" height="560" fill="#ffffff"></rect></mask><linearGradient x1="15.28%" y1="-39.29%" x2="84.72%" y2="139.29%" gradientUnits="userSpaceOnUse" id="SvgjsLinearGradient1269"><stop stop-color="#0e2a47" offset="0"></stop><stop stop-color="rgba(2, 6, 12, 1)" offset="1"></stop></linearGradient></defs></svg>