<svg id="visual" viewBox="0 0 960 540" width="960" height="540" xmlns="http://www.w3.org/2000/svg" xmlns:xlink="http://www.w3.org/1999/xlink" version="1.1"><rect x="0" y="0" width="960" height="540" fill="#152238"></rect><defs><linearGradient id="grad1_0" x1="43.8%" y1="0%" x2="100%" y2="100%"><stop offset="14.444444444444446%" stop-color="#0066ff" stop-opacity="1"></stop><stop offset="85.55555555555554%" stop-color="#0066ff" stop-opacity="1"></stop></linearGradient></defs><defs><linearGradient id="grad1_1" x1="43.8%" y1="0%" x2="100%" y2="100%"><stop offset="14.444444444444446%" stop-color="#0066ff" stop-opacity="1"></stop><stop offset="85.55555555555554%" stop-color="#00c1e3" stop-opacity="1"></stop></linearGradient></defs><defs><linearGradient id="grad1_2" x1="43.8%" y1="0%" x2="100%" y2="100%"><stop offset="14.444444444444446%" stop-color="#ddeedd" stop-opacity="1"></stop><stop offset="85.55555555555554%" stop-color="#00c1e3" stop-opacity="1"></stop></linearGradient></defs><defs><linearGradient id="grad2_0" x1="0%" y1="0%" x2="56.3%" y2="100%"><stop offset="14.444444444444446%" stop-color="#0066ff" stop-opacity="1"></stop><stop offset="85.55555555555554%" stop-color="#0066ff" stop-opacity="1"></stop></linearGradient></defs><defs><linearGradient id="grad2_1" x1="0%" y1="0%" x2="56.3%" y2="100%"><stop offset="14.444444444444446%" stop-color="#00c1e3" stop-opacity="1"></stop><stop offset="85.55555555555554%" stop-color="#0066ff" stop-opacity="1"></stop></linearGradient></defs><defs><linearGradient id="grad2_2" x1="0%" y1="0%" x2="56.3%" y2="100%"><stop offset="14.444444444444446%" stop-color="#00c1e3" stop-opacity="1"></stop><stop offset="85.55555555555554%" stop-color="#ddeedd" stop-opacity="1"></stop></linearGradient></defs><g transform="translate(960, 0)"><path d="M0 297C-52 289.2 -103.9 281.5 -148.5 257.2C-193.1 232.9 -230.2 192.1 -253.7 146.5C-277.3 100.9 -287.1 50.4 -297 0L0 0Z" fill="#81daca"></path><path d="M0 198C-34.6 192.8 -69.3 187.7 -99 171.5C-128.7 155.3 -153.5 128.1 -169.2 97.7C-184.8 67.3 -191.4 33.6 -198 0L0 0Z" fill="#009dff"></path><path d="M0 99C-17.3 96.4 -34.6 93.8 -49.5 85.7C-64.4 77.6 -76.7 64 -84.6 48.8C-92.4 33.6 -95.7 16.8 -99 0L0 0Z" fill="#0066ff"></path></g><g transform="translate(0, 540)"><path d="M0 -297C54.3 -290.6 108.6 -284.2 148.5 -257.2C188.4 -230.3 214.1 -182.8 236.4 -136.5C258.8 -90.2 277.9 -45.1 297 0L0 0Z" fill="#81daca"></path><path d="M0 -198C36.2 -193.7 72.4 -189.4 99 -171.5C125.6 -153.5 142.7 -121.9 157.6 -91C172.5 -60.1 185.3 -30.1 198 0L0 0Z" fill="#009dff"></path><path d="M0 -99C18.1 -96.9 36.2 -94.7 49.5 -85.7C62.8 -76.8 71.4 -60.9 78.8 -45.5C86.3 -30.1 92.6 -15 99 0L0 0Z" fill="#0066ff"></path></g></svg>