<?xml version="1.0" ?><svg fill="none" height="24" viewBox="0 0 24 24" width="24" xmlns="http://www.w3.org/2000/svg"><g id="Car"><path clip-rule="evenodd" d="M6.48798 7.75C6.42133 7.75 6.35744 7.77661 6.3105 7.82393L3.92105 10.2325C3.59247 10.5637 3.14523 10.75 2.67869 10.75H2C1.86193 10.75 1.75 10.8619 1.75 11V14C1.75 14.1381 1.86193 14.25 2 14.25H4C4.41421 14.25 4.75 14.5858 4.75 15C4.75 15.4142 4.41421 15.75 4 15.75H2C1.0335 15.75 0.25 14.9665 0.25 14V11C0.25 10.0335 1.0335 9.25 2 9.25H2.67869C2.74534 9.25 2.80923 9.22339 2.85617 9.17607L5.24562 6.7675C5.5742 6.43629 6.02143 6.25 6.48798 6.25H13.6667C14.0453 6.25 14.4137 6.37281 14.7167 6.6L18.2269 9.23271C18.2634 9.26007 18.3067 9.27693 18.3521 9.28147L21.2736 9.57362C22.6794 9.7142 23.75 10.8972 23.75 12.31V14C23.75 14.9665 22.9665 15.75 22 15.75H18C17.5858 15.75 17.25 15.4142 17.25 15C17.25 14.5858 17.5858 14.25 18 14.25H22C22.1381 14.25 22.25 14.1381 22.25 14V12.31C22.25 11.6678 21.7634 11.1301 21.1244 11.0662L18.2028 10.774C17.8852 10.7423 17.5823 10.6242 17.3269 10.4327L13.8167 7.8C13.7734 7.76754 13.7208 7.75 13.6667 7.75H6.48798ZM6.25 15C6.25 14.5858 6.58579 14.25 7 14.25H15C15.4142 14.25 15.75 14.5858 15.75 15C15.75 15.4142 15.4142 15.75 15 15.75H7C6.58579 15.75 6.25 15.4142 6.25 15Z" fill="black" fill-rule="evenodd" id="Rectangle 1 (Stroke)"/><path clip-rule="evenodd" d="M5.5 14.75C5.08579 14.75 4.75 15.0858 4.75 15.5C4.75 15.9142 5.08579 16.25 5.5 16.25C5.91421 16.25 6.25 15.9142 6.25 15.5C6.25 15.0858 5.91421 14.75 5.5 14.75ZM3.25 15.5C3.25 14.2574 4.25736 13.25 5.5 13.25C6.74264 13.25 7.75 14.2574 7.75 15.5C7.75 16.7426 6.74264 17.75 5.5 17.75C4.25736 17.75 3.25 16.7426 3.25 15.5Z" fill="black" fill-rule="evenodd" id="Ellipse 1 (Stroke)"/><path clip-rule="evenodd" d="M16.5 14.75C16.0858 14.75 15.75 15.0858 15.75 15.5C15.75 15.9142 16.0858 16.25 16.5 16.25C16.9142 16.25 17.25 15.9142 17.25 15.5C17.25 15.0858 16.9142 14.75 16.5 14.75ZM14.25 15.5C14.25 14.2574 15.2574 13.25 16.5 13.25C17.7426 13.25 18.75 14.2574 18.75 15.5C18.75 16.7426 17.7426 17.75 16.5 17.75C15.2574 17.75 14.25 16.7426 14.25 15.5Z" fill="black" fill-rule="evenodd" id="Ellipse 2 (Stroke)"/><path clip-rule="evenodd" d="M20.25 12C20.25 11.5858 20.5858 11.25 21 11.25H23C23.4142 11.25 23.75 11.5858 23.75 12C23.75 12.4142 23.4142 12.75 23 12.75H21C20.5858 12.75 20.25 12.4142 20.25 12Z" fill="black" fill-rule="evenodd" id="Vector 1 (Stroke)"/><path clip-rule="evenodd" d="M10 6.25C10.4142 6.25 10.75 6.58579 10.75 7V10C10.75 10.4142 10.4142 10.75 10 10.75C9.58579 10.75 9.25 10.4142 9.25 10V7C9.25 6.58579 9.58579 6.25 10 6.25Z" fill="black" fill-rule="evenodd" id="Vector 2 (Stroke)"/><path clip-rule="evenodd" d="M5.25 10C5.25 9.58579 5.58579 9.25 6 9.25H14.5C14.9142 9.25 15.25 9.58579 15.25 10C15.25 10.4142 14.9142 10.75 14.5 10.75H6C5.58579 10.75 5.25 10.4142 5.25 10Z" fill="black" fill-rule="evenodd" id="Vector 3 (Stroke)"/></g></svg>