<svg version="1.1" xmlns="http://www.w3.org/2000/svg" viewBox="0 0 180.27717583427733 206.09346711163445" width="180.27717583427733" height="206.09346711163445">
  <!-- svg-source:excalidraw -->
  
  <defs>
    <style class="style-fonts">
      @font-face {
        font-family: "Virgil";
        src: url("https://excalidraw.com/Virgil.woff2");
      }
      @font-face {
        font-family: "Cascadia";
        src: url("https://excalidraw.com/Cascadia.woff2");
      }
    </style>
  </defs>
  <rect x="0" y="0" width="180.27717583427733" height="206.09346711163445" fill="none"></rect><g stroke-linecap="round"><g transform="translate(152.09021953786697 9.822566768080009) rotate(0 -63.70566118210553 31.00767271913587)"><path d="M0.63 1.71 C-20.25 11.85, -106.65 52.61, -128.04 61.84 M-2.48 0.18 C-22.25 9.5, -103.03 48.45, -122.96 58.26" stroke="#ded" stroke-width="1" fill="none"></path></g></g><mask></mask><g stroke-linecap="round"><g transform="translate(25.690225641382597 70.62260033741595) rotate(0 64.4483622757561 32.68629889118034)"><path d="M-2.57 0.48 C6.95 1.78, 58.87 -3.54, 56.69 9.18 C54.51 21.89, -14.45 68.26, -15.67 76.78 C-16.9 85.3, 44.78 52.51, 49.35 60.29 C53.92 68.07, -3.94 129.54, 11.75 123.46 C27.44 117.38, 133.35 37.77, 143.49 23.8 C153.63 9.84, 73.29 46.89, 72.61 39.67 C71.93 32.46, 137.41 -10.13, 139.4 -19.5 C141.39 -28.87, 87.31 -10.15, 84.56 -16.56 C81.8 -22.97, 116.26 -50.93, 122.9 -57.96 M1.22 -1.73 C11.62 -1.4, 63.6 -7.57, 61.73 4.81 C59.87 17.18, -7.9 62.98, -9.96 72.54 C-12.03 82.1, 44.97 53.45, 49.36 62.19 C53.74 70.92, 1.37 131.64, 16.35 124.96 C31.32 118.28, 130.82 35.52, 139.21 22.11 C147.6 8.71, 65.82 51.77, 66.69 44.52 C67.56 37.28, 140.91 -10.78, 144.43 -21.34 C147.95 -31.9, 91.13 -12.37, 87.81 -18.83 C84.5 -25.29, 118.22 -53.59, 124.55 -60.1" stroke="#ded" stroke-width="1" fill="none"></path></g></g><mask></mask><g stroke-linecap="round"><g transform="translate(85.6902256413826 78.62260033741595) rotate(0 6.0734493300318775 35.95353926882147)"><path d="M-1.42 1.26 C0.97 13.19, 10.74 57.25, 13.56 68.8 M3.01 -0.52 C5.16 12.14, 9.71 61.34, 11.74 72.43" stroke="#ded" stroke-width="1" fill="none"></path></g></g><mask></mask><g stroke-linecap="round"><g transform="translate(75.29023174489822 130.62258507862688) rotate(0 2.7289089166372946 17.20328554160895)"><path d="M0.89 -1.37 C1.78 3.96, 7.14 27.11, 7.53 33.22 M-2.07 4.06 C-1.51 9.58, 6.33 30.04, 6.78 35.77" stroke="#ded" stroke-width="1" fill="none"></path></g></g><mask></mask><g stroke-linecap="round"><g transform="translate(111.29023174489822 53.022563716322196) rotate(0 7.05234709233045 17.15335868604481)"><path d="M-0.62 1.45 C1.43 6.76, 12.62 28.96, 14.72 34.54 M4.24 -0.23 C5.73 5.47, 10.44 25.35, 12.66 30.47" stroke="#ded" stroke-width="1" fill="none"></path></g></g><mask></mask><g stroke-linecap="round"><g transform="translate(87.29023174489822 41.022563716322196) rotate(0 6.415564970672136 17.715661308839913)"><path d="M-1.32 0.2 C1.07 6.9, 11.48 31.71, 14.15 37.59 M3.16 -2.16 C5.31 3.89, 10.86 26.34, 12.64 33" stroke="#ded" stroke-width="1" fill="none"></path></g></g><mask></mask><g stroke-linecap="round"><g transform="translate(69.6746545671948 95.90690851099785) rotate(0 7.552092200443155 18.66428772956135)"><path d="M2.04 -2.17 C4.25 4.65, 13.85 32.72, 15.4 39.5 M-0.29 2.82 C1.58 9.06, 13.07 30.78, 14.57 35.96" stroke="#ded" stroke-width="1" fill="none"></path></g></g><mask></mask></svg>